<svg xmlns="http://www.w3.org/2000/svg" xmlns:xlink="http://www.w3.org/1999/xlink" zoomAndPan="magnify" preserveAspectRatio="xMidYMid meet" version="1.0" viewBox="143.95 229.09 1153.16 378.93"><defs><g/><clipPath id="40bb7bbc52"><path d="M 532 390.226562 L 587 390.226562 L 587 410 L 532 410 Z M 532 390.226562 " clip-rule="nonzero"/></clipPath><clipPath id="749f436ae2"><path d="M 530 395 L 587 395 L 587 410.652344 L 530 410.652344 Z M 530 395 " clip-rule="nonzero"/></clipPath><clipPath id="f2774dc7cc"><path d="M 575 390.226562 L 629 390.226562 L 629 410 L 575 410 Z M 575 390.226562 " clip-rule="nonzero"/></clipPath><clipPath id="5e5af42a4b"><path d="M 575 395 L 632 395 L 632 410.652344 L 575 410.652344 Z M 575 395 " clip-rule="nonzero"/></clipPath><clipPath id="c9087de593"><path d="M 0 287 L 1176.238281 287 L 1176.238281 360 L 0 360 Z M 0 287 " clip-rule="nonzero"/></clipPath><clipPath id="1afc99add4"><rect x="0" width="1177" y="0" height="73"/></clipPath><clipPath id="59f6e34d45"><rect x="0" width="1177" y="0" height="415"/></clipPath></defs><g transform="matrix(1, 0, 0, 1, 138, 197)"><g clip-path="url(#59f6e34d45)"><path fill="#231f20" d="M 518.429688 401.777344 L 258.960938 398.855469 L 518.429688 395.933594 L 527.261719 398.855469 Z M 518.429688 401.777344 " fill-opacity="1" fill-rule="nonzero"/><path fill="#231f20" d="M 645.929688 395.933594 L 905.398438 398.855469 L 645.929688 401.777344 L 637.097656 398.855469 Z M 645.929688 395.933594 " fill-opacity="1" fill-rule="nonzero"/><g clip-path="url(#40bb7bbc52)"><path fill="#231f20" d="M 532.632812 396.808594 C 532.632812 396.808594 532.902344 395.832031 534.042969 394.421875 C 534.613281 393.71875 535.386719 392.945312 536.460938 392.207031 C 537.535156 391.5 538.914062 390.832031 540.523438 390.496094 C 542.136719 390.125 543.984375 390.089844 545.828125 390.394531 C 547.675781 390.730469 549.523438 391.367188 551.269531 392.242188 C 551.707031 392.441406 552.144531 392.710938 552.578125 392.945312 C 552.8125 393.078125 552.980469 393.179688 553.25 393.347656 L 553.820312 393.71875 C 554.59375 394.253906 555.398438 394.792969 556.171875 395.363281 C 557.683594 396.4375 559.195312 397.546875 560.707031 398.621094 C 563.695312 400.804688 566.785156 402.75 569.738281 404.261719 C 571.25 405 572.726562 405.570312 574.136719 405.972656 C 575.582031 406.378906 576.957031 406.578125 578.234375 406.578125 C 580.820312 406.578125 582.933594 405.640625 584.277344 404.765625 C 584.949219 404.328125 585.488281 403.960938 585.824219 403.65625 C 586.191406 403.390625 586.359375 403.222656 586.359375 403.222656 C 586.359375 403.222656 586.226562 403.421875 585.992188 403.824219 C 585.753906 404.226562 585.386719 404.765625 584.816406 405.4375 C 584.246094 406.074219 583.472656 406.8125 582.429688 407.519531 C 581.390625 408.191406 580.046875 408.761719 578.535156 409.132812 C 576.992188 409.464844 575.277344 409.535156 573.53125 409.332031 C 571.753906 409.164062 569.972656 408.695312 568.195312 408.089844 C 564.601562 406.914062 561.175781 404.933594 557.851562 402.917969 C 556.238281 401.878906 554.628906 400.804688 553.117188 399.761719 C 552.378906 399.257812 551.640625 398.753906 550.933594 398.285156 L 549.859375 397.613281 C 549.523438 397.410156 549.152344 397.175781 548.816406 397.007812 C 546.066406 395.464844 543.378906 394.589844 540.960938 394.492188 C 539.75 394.457031 538.609375 394.523438 537.601562 394.792969 C 536.5625 394.992188 535.6875 395.363281 534.949219 395.664062 C 533.472656 396.238281 532.632812 396.808594 532.632812 396.808594 Z M 532.632812 396.808594 " fill-opacity="1" fill-rule="nonzero"/></g><g clip-path="url(#749f436ae2)"><path fill="#231f20" d="M 530.28125 400.46875 C 530.28125 400.46875 530.417969 400.265625 530.683594 399.863281 C 530.953125 399.492188 531.425781 398.957031 532.097656 398.351562 C 533.40625 397.175781 535.6875 395.699219 538.84375 395.363281 C 540.421875 395.195312 542.136719 395.328125 543.847656 395.765625 C 545.59375 396.167969 547.308594 396.976562 548.984375 397.914062 C 550.664062 398.855469 552.210938 400.066406 553.789062 401.171875 C 555.367188 402.3125 556.976562 403.457031 558.65625 404.496094 C 561.949219 406.613281 565.472656 408.425781 568.964844 409.367188 C 570.710938 409.835938 572.457031 410.039062 574.105469 409.96875 C 575.75 409.902344 577.292969 409.535156 578.671875 409.03125 C 580.011719 408.492188 581.222656 407.855469 582.164062 407.148438 C 583.136719 406.445312 583.941406 405.773438 584.546875 405.136719 C 585.183594 404.5625 585.621094 404.027344 585.921875 403.691406 C 586.226562 403.355469 586.394531 403.152344 586.394531 403.152344 C 586.394531 403.152344 586.257812 403.355469 585.957031 403.726562 C 585.6875 404.09375 585.285156 404.664062 584.714844 405.304688 C 584.144531 405.972656 583.40625 406.746094 582.464844 407.519531 C 581.523438 408.324219 580.347656 409.0625 578.972656 409.734375 C 576.183594 411.046875 572.425781 411.414062 568.664062 410.574219 C 564.902344 409.800781 561.210938 407.921875 557.816406 405.804688 C 554.390625 403.726562 551.203125 401.207031 548.113281 399.359375 C 545.023438 397.511719 541.734375 396.539062 538.914062 396.605469 C 536.058594 396.671875 533.773438 397.746094 532.363281 398.652344 C 530.953125 399.695312 530.28125 400.46875 530.28125 400.46875 Z M 530.28125 400.46875 " fill-opacity="1" fill-rule="nonzero"/></g><path fill="#231f20" d="M 586.394531 402.851562 C 586.394531 402.851562 588.710938 398.285156 587.132812 395.902344 C 585.519531 393.484375 581.558594 393.683594 581.558594 396.808594 C 581.558594 399.929688 587.199219 397.648438 586.394531 402.851562 Z M 586.394531 402.851562 " fill-opacity="1" fill-rule="nonzero"/><path fill="#231f20" d="M 531.929688 398.789062 C 531.929688 398.789062 527.832031 400.535156 528.601562 405.203125 C 529.207031 408.761719 534.34375 407.886719 534.144531 404.765625 C 533.941406 401.609375 528.671875 402.683594 531.929688 398.789062 Z M 531.929688 398.789062 " fill-opacity="1" fill-rule="nonzero"/><g clip-path="url(#f2774dc7cc)"><path fill="#231f20" d="M 628.839844 396.808594 C 628.839844 396.808594 628.570312 395.832031 627.429688 394.421875 C 626.855469 393.71875 626.085938 392.945312 625.011719 392.207031 C 623.933594 391.5 622.558594 390.832031 620.945312 390.496094 C 619.335938 390.125 617.488281 390.089844 615.640625 390.394531 C 613.792969 390.730469 611.949219 391.367188 610.203125 392.242188 C 609.765625 392.441406 609.328125 392.710938 608.890625 392.945312 C 608.65625 393.078125 608.488281 393.179688 608.21875 393.347656 L 607.648438 393.71875 C 606.878906 394.253906 606.070312 394.792969 605.300781 395.363281 C 603.789062 396.4375 602.277344 397.546875 600.765625 398.621094 C 597.777344 400.804688 594.6875 402.75 591.734375 404.261719 C 590.222656 405 588.746094 405.570312 587.332031 405.972656 C 585.890625 406.378906 584.511719 406.578125 583.238281 406.578125 C 580.652344 406.578125 578.535156 405.640625 577.191406 404.765625 C 576.519531 404.328125 575.984375 403.960938 575.648438 403.65625 C 575.277344 403.390625 575.109375 403.222656 575.109375 403.222656 C 575.109375 403.222656 575.246094 403.421875 575.480469 403.824219 C 575.714844 404.226562 576.085938 404.765625 576.65625 405.4375 C 577.226562 406.074219 578 406.8125 579.039062 407.519531 C 580.082031 408.191406 581.425781 408.761719 582.933594 409.132812 C 584.480469 409.464844 586.191406 409.535156 587.9375 409.332031 C 589.71875 409.164062 591.496094 408.695312 593.277344 408.089844 C 596.871094 406.914062 600.296875 404.933594 603.621094 402.917969 C 605.230469 401.878906 606.84375 400.804688 608.355469 399.761719 C 609.09375 399.257812 609.832031 398.753906 610.570312 398.285156 L 611.644531 397.613281 C 611.980469 397.410156 612.351562 397.175781 612.6875 397.007812 C 615.441406 395.464844 618.125 394.589844 620.542969 394.492188 C 621.753906 394.457031 622.894531 394.523438 623.902344 394.792969 C 624.941406 394.992188 625.816406 395.363281 626.554688 395.664062 C 628.03125 396.238281 628.839844 396.808594 628.839844 396.808594 Z M 628.839844 396.808594 " fill-opacity="1" fill-rule="nonzero"/></g><g clip-path="url(#5e5af42a4b)"><path fill="#231f20" d="M 631.222656 400.46875 C 631.222656 400.46875 631.089844 400.265625 630.820312 399.863281 C 630.550781 399.492188 630.082031 398.957031 629.410156 398.351562 C 628.097656 397.175781 625.816406 395.699219 622.660156 395.363281 C 621.082031 395.195312 619.367188 395.328125 617.65625 395.765625 C 615.910156 396.167969 614.199219 396.976562 612.519531 397.914062 C 610.839844 398.855469 609.292969 400.066406 607.714844 401.171875 C 606.136719 402.3125 604.527344 403.457031 602.847656 404.496094 C 599.558594 406.613281 596.03125 408.425781 592.539062 409.367188 C 590.792969 409.835938 589.046875 410.039062 587.402344 409.96875 C 585.753906 409.902344 584.210938 409.535156 582.835938 409.03125 C 581.492188 408.492188 580.28125 407.855469 579.34375 407.148438 C 578.367188 406.445312 577.5625 405.773438 576.957031 405.136719 C 576.320312 404.5625 575.882812 404.027344 575.582031 403.691406 C 575.277344 403.355469 575.109375 403.152344 575.109375 403.152344 C 575.109375 403.152344 575.246094 403.355469 575.546875 403.726562 C 575.816406 404.09375 576.21875 404.664062 576.789062 405.304688 C 577.359375 405.972656 578.097656 406.746094 579.039062 407.519531 C 579.980469 408.324219 581.15625 409.0625 582.53125 409.734375 C 585.320312 411.046875 589.078125 411.414062 592.839844 410.574219 C 596.601562 409.800781 600.296875 407.921875 603.6875 405.804688 C 607.113281 403.726562 610.300781 401.207031 613.390625 399.359375 C 616.480469 397.511719 619.773438 396.539062 622.59375 396.605469 C 625.445312 396.671875 627.730469 397.746094 629.140625 398.652344 C 630.550781 399.695312 631.222656 400.46875 631.222656 400.46875 Z M 631.222656 400.46875 " fill-opacity="1" fill-rule="nonzero"/></g><path fill="#231f20" d="M 575.109375 402.851562 C 575.109375 402.851562 572.792969 398.285156 574.371094 395.902344 C 575.984375 393.484375 579.945312 393.683594 579.945312 396.808594 C 579.945312 399.929688 574.273438 397.648438 575.109375 402.851562 Z M 575.109375 402.851562 " fill-opacity="1" fill-rule="nonzero"/><path fill="#231f20" d="M 629.542969 398.789062 C 629.542969 398.789062 633.640625 400.535156 632.867188 405.203125 C 632.261719 408.761719 627.125 407.886719 627.328125 404.765625 C 627.5625 401.609375 632.835938 402.683594 629.542969 398.789062 Z M 629.542969 398.789062 " fill-opacity="1" fill-rule="nonzero"/><g fill="#231f20" fill-opacity="1"><g transform="translate(245.347445, 218.546019)"><g><path d="M 200.15625 -2.890625 C 200.476562 -2.890625 200.640625 -2.40625 200.640625 -1.4375 C 200.640625 -0.476562 200.476562 0 200.15625 0 C 194.707031 0 190.378906 -0.078125 187.171875 -0.234375 L 169.390625 -0.484375 L 151.375 -0.234375 C 148.332031 -0.078125 144.164062 0 138.875 0 C 138.394531 0 138.15625 -0.476562 138.15625 -1.4375 C 138.15625 -2.40625 138.394531 -2.890625 138.875 -2.890625 C 145.601562 -2.890625 150.171875 -3.6875 152.578125 -5.28125 C 154.984375 -6.882812 156.1875 -10.25 156.1875 -15.375 L 155.9375 -19.46875 L 150.890625 -117.734375 L 101.40625 -1.6875 C 101.082031 -1.039062 100.4375 -0.71875 99.46875 -0.71875 C 98.507812 -0.71875 97.867188 -1.039062 97.546875 -1.6875 L 36.765625 -117.25 L 34.84375 -30.515625 C 34.675781 -21.867188 36.394531 -15.101562 40 -10.21875 C 43.601562 -5.332031 48.691406 -2.890625 55.265625 -2.890625 C 55.742188 -2.890625 55.984375 -2.40625 55.984375 -1.4375 C 55.984375 -0.476562 55.742188 0 55.265625 0 C 50.941406 0 47.578125 -0.078125 45.171875 -0.234375 L 31.953125 -0.484375 L 16.8125 -0.234375 C 14.25 -0.078125 10.804688 0 6.484375 0 C 6.003906 0 5.765625 -0.476562 5.765625 -1.4375 C 5.765625 -2.40625 6.003906 -2.890625 6.484375 -2.890625 C 13.054688 -2.890625 18.265625 -5.367188 22.109375 -10.328125 C 25.953125 -15.296875 27.953125 -22.023438 28.109375 -30.515625 L 30.28125 -130 L 30.03125 -130.234375 C 26.832031 -136.160156 23.507812 -140.484375 20.0625 -143.203125 C 16.613281 -145.929688 12.648438 -147.296875 8.171875 -147.296875 C 7.691406 -147.296875 7.453125 -147.773438 7.453125 -148.734375 C 7.453125 -149.691406 7.691406 -150.171875 8.171875 -150.171875 L 19.46875 -149.9375 C 21.707031 -149.769531 24.585938 -149.6875 28.109375 -149.6875 L 40.84375 -149.9375 C 42.289062 -150.09375 44.132812 -150.171875 46.375 -150.171875 C 48.457031 -150.171875 50.054688 -149.445312 51.171875 -148 C 52.296875 -146.5625 54.378906 -143.125 57.421875 -137.6875 L 109.8125 -39.40625 L 155.46875 -144.171875 C 156.425781 -146.410156 157.425781 -147.96875 158.46875 -148.84375 C 159.507812 -149.726562 160.910156 -150.171875 162.671875 -150.171875 C 164.109375 -150.171875 165.75 -150.085938 167.59375 -149.921875 C 169.4375 -149.765625 171.5625 -149.6875 173.96875 -149.6875 L 188.140625 -149.9375 C 190.378906 -150.09375 193.582031 -150.171875 197.75 -150.171875 C 198.226562 -150.171875 198.46875 -149.691406 198.46875 -148.734375 C 198.46875 -147.773438 198.226562 -147.296875 197.75 -147.296875 C 190.21875 -147.296875 184.769531 -145.769531 181.40625 -142.71875 C 178.039062 -139.675781 176.519531 -134.953125 176.84375 -128.546875 L 182.609375 -19.46875 C 182.929688 -14.5 183.53125 -10.890625 184.40625 -8.640625 C 185.289062 -6.398438 186.894531 -4.878906 189.21875 -4.078125 C 191.539062 -3.285156 195.1875 -2.890625 200.15625 -2.890625 Z M 200.15625 -2.890625 "/></g></g></g><g fill="#231f20" fill-opacity="1"><g transform="translate(511.106907, 218.546019)"><g><path d="M 90.34375 -185.25 C 91.144531 -186.050781 92.109375 -186.453125 93.234375 -186.453125 C 94.191406 -186.453125 95.070312 -186.050781 95.875 -185.25 L 120.375 -157.390625 C 120.539062 -157.390625 120.625 -157.226562 120.625 -156.90625 C 120.625 -156.582031 120.421875 -156.257812 120.015625 -155.9375 C 119.617188 -155.625 119.335938 -155.546875 119.171875 -155.703125 L 93.234375 -165.078125 L 67.03125 -155.703125 C 66.71875 -155.546875 66.316406 -155.742188 65.828125 -156.296875 C 65.347656 -156.859375 65.269531 -157.222656 65.59375 -157.390625 Z M 87.9375 2.890625 C 73.039062 2.890625 59.785156 -0.59375 48.171875 -7.5625 C 36.554688 -14.53125 27.585938 -23.984375 21.265625 -35.921875 C 14.941406 -47.859375 11.78125 -60.875 11.78125 -74.96875 C 11.78125 -91.46875 15.941406 -105.601562 24.265625 -117.375 C 32.597656 -129.144531 43.289062 -137.992188 56.34375 -143.921875 C 69.394531 -149.847656 82.734375 -152.8125 96.359375 -152.8125 C 111.566406 -152.8125 124.9375 -149.25 136.46875 -142.125 C 148.007812 -135 156.863281 -125.585938 163.03125 -113.890625 C 169.195312 -102.203125 172.28125 -89.789062 172.28125 -76.65625 C 172.28125 -62.070312 168.4375 -48.691406 160.75 -36.515625 C 153.0625 -24.347656 142.769531 -14.738281 129.875 -7.6875 C 116.976562 -0.632812 103 2.890625 87.9375 2.890625 Z M 95.875 -3.125 C 104.84375 -3.125 112.890625 -5.722656 120.015625 -10.921875 C 127.148438 -16.128906 132.71875 -23.738281 136.71875 -33.75 C 140.726562 -43.769531 142.734375 -55.75 142.734375 -69.6875 C 142.734375 -84.414062 140.488281 -97.585938 136 -109.203125 C 131.507812 -120.816406 125.019531 -129.90625 116.53125 -136.46875 C 108.039062 -143.039062 98.109375 -146.328125 86.734375 -146.328125 C 72.160156 -146.328125 60.945312 -140.835938 53.09375 -129.859375 C 45.25 -118.890625 41.328125 -103.554688 41.328125 -83.859375 C 41.328125 -68.316406 43.6875 -54.414062 48.40625 -42.15625 C 53.132812 -29.90625 59.625 -20.335938 67.875 -13.453125 C 76.125 -6.566406 85.457031 -3.125 95.875 -3.125 Z M 95.15625 49.734375 C 90.507812 49.734375 86.90625 48.453125 84.34375 45.890625 C 81.78125 43.328125 80.5 39.722656 80.5 35.078125 C 80.5 30.910156 81.816406 27.585938 84.453125 25.109375 C 87.097656 22.628906 90.664062 21.390625 95.15625 21.390625 C 99.632812 21.390625 103.078125 22.628906 105.484375 25.109375 C 107.890625 27.585938 109.09375 30.910156 109.09375 35.078125 C 109.09375 39.722656 107.890625 43.328125 105.484375 45.890625 C 103.078125 48.453125 99.632812 49.734375 95.15625 49.734375 Z M 95.15625 49.734375 "/></g></g></g><g fill="#231f20" fill-opacity="1"><g transform="translate(755.000656, 218.546019)"><g><path d="M 102.59375 -152.8125 C 110.125 -152.8125 117.773438 -152.210938 125.546875 -151.015625 C 133.316406 -149.816406 139.523438 -148.253906 144.171875 -146.328125 C 145.609375 -145.847656 146.523438 -145.25 146.921875 -144.53125 C 147.328125 -143.8125 147.609375 -142.570312 147.765625 -140.8125 L 150.890625 -107.40625 C 150.890625 -106.925781 150.488281 -106.601562 149.6875 -106.4375 C 148.894531 -106.28125 148.335938 -106.523438 148.015625 -107.171875 C 143.523438 -120.304688 137.113281 -130.351562 128.78125 -137.3125 C 120.457031 -144.28125 110.445312 -147.765625 98.75 -147.765625 C 87.863281 -147.765625 78.132812 -144.84375 69.5625 -139 C 60.988281 -133.15625 54.257812 -124.785156 49.375 -113.890625 C 44.488281 -102.992188 42.046875 -90.257812 42.046875 -75.6875 C 42.046875 -60.945312 44.566406 -48.007812 49.609375 -36.875 C 54.660156 -25.75 61.628906 -17.179688 70.515625 -11.171875 C 79.410156 -5.160156 89.625 -2.15625 101.15625 -2.15625 C 112.207031 -2.15625 121.5 -5.160156 129.03125 -11.171875 C 136.5625 -17.179688 143.691406 -27.070312 150.421875 -40.84375 C 150.578125 -41.320312 151.054688 -41.484375 151.859375 -41.328125 C 152.660156 -41.171875 153.0625 -40.851562 153.0625 -40.375 L 149.453125 -10.578125 C 149.128906 -8.648438 148.804688 -7.40625 148.484375 -6.84375 C 148.171875 -6.28125 147.289062 -5.679688 145.84375 -5.046875 C 131.113281 0.242188 116.21875 2.890625 101.15625 2.890625 C 84.019531 2.890625 68.679688 -0.351562 55.140625 -6.84375 C 41.609375 -13.332031 31 -22.421875 23.3125 -34.109375 C 15.625 -45.804688 11.78125 -59.101562 11.78125 -74 C 11.78125 -89.21875 15.742188 -102.796875 23.671875 -114.734375 C 31.597656 -126.671875 42.488281 -136 56.34375 -142.71875 C 70.195312 -149.445312 85.613281 -152.8125 102.59375 -152.8125 Z M 102.59375 -152.8125 "/></g></g></g><g clip-path="url(#c9087de593)"><g transform="matrix(1, 0, 0, 1, 0, 287)"><g clip-path="url(#1afc99add4)"><g fill="#231f20" fill-opacity="1"><g transform="translate(3.686975, 52.139142)"><g><path d="M 11.546875 -36.0625 C 9.085938 -36.0625 7.191406 -35.394531 5.859375 -34.0625 C 4.535156 -32.738281 3.570312 -30.566406 2.96875 -27.546875 C 2.9375 -27.429688 2.8125 -27.378906 2.59375 -27.390625 C 2.375 -27.410156 2.265625 -27.460938 2.265625 -27.546875 C 2.421875 -28.660156 2.597656 -30.445312 2.796875 -32.90625 C 2.992188 -35.363281 3.09375 -37.226562 3.09375 -38.5 C 3.09375 -38.695312 3.210938 -38.796875 3.453125 -38.796875 C 3.691406 -38.796875 3.8125 -38.695312 3.8125 -38.5 C 3.8125 -37.625 4.878906 -37.1875 7.015625 -37.1875 C 10.429688 -37.070312 14.421875 -37.015625 18.984375 -37.015625 C 21.316406 -37.015625 23.796875 -37.050781 26.421875 -37.125 L 30.46875 -37.1875 C 31.894531 -37.1875 32.953125 -37.285156 33.640625 -37.484375 C 34.335938 -37.679688 34.785156 -38.078125 34.984375 -38.671875 C 35.023438 -38.828125 35.144531 -38.90625 35.34375 -38.90625 C 35.539062 -38.90625 35.640625 -38.828125 35.640625 -38.671875 C 35.523438 -37.523438 35.40625 -35.75 35.28125 -33.34375 C 35.164062 -30.945312 35.109375 -29.015625 35.109375 -27.546875 C 35.109375 -27.460938 35 -27.421875 34.78125 -27.421875 C 34.5625 -27.421875 34.429688 -27.460938 34.390625 -27.546875 C 34.234375 -30.597656 33.53125 -32.78125 32.28125 -34.09375 C 31.03125 -35.40625 29.097656 -36.0625 26.484375 -36.0625 C 24.890625 -36.0625 23.742188 -35.976562 23.046875 -35.8125 C 22.359375 -35.65625 21.882812 -35.316406 21.625 -34.796875 C 21.363281 -34.285156 21.234375 -33.4375 21.234375 -32.25 L 21.234375 -4.8125 C 21.234375 -3.582031 21.363281 -2.691406 21.625 -2.140625 C 21.882812 -1.585938 22.398438 -1.210938 23.171875 -1.015625 C 23.941406 -0.816406 25.179688 -0.71875 26.890625 -0.71875 C 26.972656 -0.71875 27.015625 -0.597656 27.015625 -0.359375 C 27.015625 -0.117188 26.972656 0 26.890625 0 C 25.546875 0 24.476562 -0.0195312 23.6875 -0.0625 L 18.984375 -0.125 L 14.453125 -0.0625 C 13.660156 -0.0195312 12.550781 0 11.125 0 C 11.039062 0 11 -0.117188 11 -0.359375 C 11 -0.597656 11.039062 -0.71875 11.125 -0.71875 C 12.789062 -0.71875 14.019531 -0.816406 14.8125 -1.015625 C 15.601562 -1.210938 16.140625 -1.597656 16.421875 -2.171875 C 16.703125 -2.742188 16.84375 -3.625 16.84375 -4.8125 L 16.84375 -32.375 C 16.84375 -33.519531 16.710938 -34.335938 16.453125 -34.828125 C 16.191406 -35.328125 15.710938 -35.65625 15.015625 -35.8125 C 14.328125 -35.976562 13.171875 -36.0625 11.546875 -36.0625 Z M 11.546875 -36.0625 "/></g></g></g><g fill="#231f20" fill-opacity="1"><g transform="translate(56.346222, 52.139142)"><g><path d="M 12.140625 -4.8125 C 12.140625 -3.582031 12.257812 -2.691406 12.5 -2.140625 C 12.738281 -1.585938 13.191406 -1.210938 13.859375 -1.015625 C 14.535156 -0.816406 15.609375 -0.71875 17.078125 -0.71875 C 17.160156 -0.71875 17.203125 -0.597656 17.203125 -0.359375 C 17.203125 -0.117188 17.160156 0 17.078125 0 C 15.847656 0 14.875 -0.0195312 14.15625 -0.0625 L 9.875 -0.125 L 5.765625 -0.0625 C 5.015625 -0.0195312 4.003906 0 2.734375 0 C 2.617188 0 2.5625 -0.117188 2.5625 -0.359375 C 2.5625 -0.597656 2.617188 -0.71875 2.734375 -0.71875 C 4.203125 -0.71875 5.273438 -0.816406 5.953125 -1.015625 C 6.628906 -1.210938 7.09375 -1.597656 7.34375 -2.171875 C 7.601562 -2.742188 7.734375 -3.625 7.734375 -4.8125 L 7.734375 -32.375 C 7.734375 -33.5625 7.601562 -34.429688 7.34375 -34.984375 C 7.09375 -35.535156 6.628906 -35.921875 5.953125 -36.140625 C 5.273438 -36.359375 4.203125 -36.46875 2.734375 -36.46875 C 2.617188 -36.46875 2.5625 -36.585938 2.5625 -36.828125 C 2.5625 -37.066406 2.617188 -37.1875 2.734375 -37.1875 L 5.765625 -37.125 C 7.429688 -37.050781 8.800781 -37.015625 9.875 -37.015625 C 11.03125 -37.015625 12.476562 -37.050781 14.21875 -37.125 L 17.078125 -37.1875 C 17.160156 -37.1875 17.203125 -37.066406 17.203125 -36.828125 C 17.203125 -36.585938 17.160156 -36.46875 17.078125 -36.46875 C 15.648438 -36.46875 14.585938 -36.347656 13.890625 -36.109375 C 13.203125 -35.878906 12.738281 -35.472656 12.5 -34.890625 C 12.257812 -34.316406 12.140625 -33.4375 12.140625 -32.25 Z M 12.140625 -4.8125 "/></g></g></g><g fill="#231f20" fill-opacity="1"><g transform="translate(91.037254, 52.139142)"><g><path d="M 10.953125 -38.5625 C 10.867188 -38.519531 10.765625 -38.566406 10.640625 -38.703125 C 10.523438 -38.835938 10.507812 -38.925781 10.59375 -38.96875 L 16.71875 -44.921875 C 16.914062 -45.117188 17.15625 -45.21875 17.4375 -45.21875 C 17.675781 -45.21875 17.894531 -45.117188 18.09375 -44.921875 L 24.15625 -38.96875 C 24.195312 -38.96875 24.21875 -38.929688 24.21875 -38.859375 C 24.21875 -38.773438 24.164062 -38.691406 24.0625 -38.609375 C 23.96875 -38.535156 23.898438 -38.519531 23.859375 -38.5625 L 17.4375 -41.765625 Z M 28.5 -8.921875 C 28.5 -9.046875 28.617188 -9.097656 28.859375 -9.078125 C 29.097656 -9.054688 29.21875 -8.984375 29.21875 -8.859375 C 28.851562 -6.285156 28.671875 -3.628906 28.671875 -0.890625 C 28.671875 -0.578125 28.601562 -0.347656 28.46875 -0.203125 C 28.332031 -0.0664062 28.085938 0 27.734375 0 L 2.5625 0 C 2.476562 0 2.4375 -0.117188 2.4375 -0.359375 C 2.4375 -0.597656 2.476562 -0.71875 2.5625 -0.71875 C 4.03125 -0.71875 5.097656 -0.816406 5.765625 -1.015625 C 6.441406 -1.210938 6.898438 -1.597656 7.140625 -2.171875 C 7.378906 -2.742188 7.5 -3.625 7.5 -4.8125 L 7.5 -32.375 C 7.5 -33.5625 7.378906 -34.429688 7.140625 -34.984375 C 6.898438 -35.535156 6.441406 -35.921875 5.765625 -36.140625 C 5.097656 -36.359375 4.03125 -36.46875 2.5625 -36.46875 C 2.476562 -36.46875 2.4375 -36.585938 2.4375 -36.828125 C 2.4375 -37.066406 2.476562 -37.1875 2.5625 -37.1875 L 26.71875 -37.1875 C 27.070312 -37.1875 27.25 -37.007812 27.25 -36.65625 L 27.375 -29.21875 C 27.375 -29.09375 27.265625 -29.03125 27.046875 -29.03125 C 26.828125 -29.03125 26.71875 -29.09375 26.71875 -29.21875 C 26.476562 -31.351562 25.742188 -32.992188 24.515625 -34.140625 C 23.285156 -35.296875 21.675781 -35.875 19.6875 -35.875 L 16.421875 -35.875 C 14.554688 -35.875 13.328125 -35.613281 12.734375 -35.09375 C 12.140625 -34.582031 11.84375 -33.59375 11.84375 -32.125 L 11.84375 -19.984375 L 18.6875 -19.984375 C 20.664062 -19.984375 22.097656 -20.320312 22.984375 -21 C 23.878906 -21.675781 24.328125 -22.769531 24.328125 -24.28125 C 24.328125 -24.351562 24.445312 -24.390625 24.6875 -24.390625 C 24.925781 -24.390625 25.046875 -24.351562 25.046875 -24.28125 L 24.984375 -19.34375 C 24.984375 -18.1875 25.003906 -17.3125 25.046875 -16.71875 L 25.109375 -13.75 C 25.109375 -13.664062 24.988281 -13.625 24.75 -13.625 C 24.507812 -13.625 24.390625 -13.664062 24.390625 -13.75 C 24.390625 -15.488281 23.929688 -16.742188 23.015625 -17.515625 C 22.109375 -18.296875 20.625 -18.6875 18.5625 -18.6875 L 11.84375 -18.6875 L 11.84375 -5.0625 C 11.84375 -4.03125 11.957031 -3.253906 12.1875 -2.734375 C 12.425781 -2.222656 12.84375 -1.859375 13.4375 -1.640625 C 14.039062 -1.421875 14.957031 -1.3125 16.1875 -1.3125 L 20.40625 -1.3125 C 22.507812 -1.3125 24.253906 -1.972656 25.640625 -3.296875 C 27.035156 -4.628906 27.988281 -6.503906 28.5 -8.921875 Z M 17.25 6.125 C 18.082031 6.125 18.738281 6.363281 19.21875 6.84375 C 19.695312 7.320312 19.9375 7.957031 19.9375 8.75 C 19.9375 9.625 19.695312 10.296875 19.21875 10.765625 C 18.738281 11.242188 18.082031 11.484375 17.25 11.484375 C 16.382812 11.484375 15.703125 11.242188 15.203125 10.765625 C 14.703125 10.296875 14.453125 9.625 14.453125 8.75 C 14.453125 7.957031 14.703125 7.320312 15.203125 6.84375 C 15.703125 6.363281 16.382812 6.125 17.25 6.125 Z M 17.25 6.125 "/></g></g></g><g fill="#231f20" fill-opacity="1"><g transform="translate(137.984747, 52.139142)"><g><path d="M 42.0625 -37.1875 C 42.1875 -37.1875 42.25 -37.066406 42.25 -36.828125 C 42.25 -36.585938 42.1875 -36.46875 42.0625 -36.46875 C 40.4375 -36.46875 39.238281 -35.984375 38.46875 -35.015625 C 37.695312 -34.046875 37.3125 -32.53125 37.3125 -30.46875 L 37.3125 0.71875 C 37.3125 0.832031 37.210938 0.910156 37.015625 0.953125 C 36.816406 0.992188 36.675781 0.972656 36.59375 0.890625 L 8.859375 -32.3125 L 8.6875 -32.546875 L 8.6875 -6.65625 C 8.6875 -4.59375 9.0625 -3.085938 9.8125 -2.140625 C 10.570312 -1.191406 11.742188 -0.71875 13.328125 -0.71875 C 13.441406 -0.71875 13.5 -0.597656 13.5 -0.359375 C 13.5 -0.117188 13.441406 0 13.328125 0 C 12.378906 0 11.625 -0.0195312 11.0625 -0.0625 L 8.03125 -0.125 L 4.875 -0.0625 C 4.28125 -0.0195312 3.429688 0 2.328125 0 C 2.242188 0 2.203125 -0.117188 2.203125 -0.359375 C 2.203125 -0.597656 2.242188 -0.71875 2.328125 -0.71875 C 4.023438 -0.71875 5.257812 -1.191406 6.03125 -2.140625 C 6.8125 -3.085938 7.203125 -4.59375 7.203125 -6.65625 L 7.203125 -34.09375 C 5.578125 -35.675781 3.929688 -36.46875 2.265625 -36.46875 C 2.140625 -36.46875 2.078125 -36.585938 2.078125 -36.828125 C 2.078125 -37.066406 2.140625 -37.1875 2.265625 -37.1875 L 4.46875 -37.125 C 4.9375 -37.082031 5.609375 -37.0625 6.484375 -37.0625 L 9.28125 -37.125 C 9.601562 -37.164062 10.019531 -37.1875 10.53125 -37.1875 C 10.84375 -37.1875 11.066406 -37.113281 11.203125 -36.96875 C 11.347656 -36.832031 11.582031 -36.53125 11.90625 -36.0625 C 12.375 -35.34375 12.847656 -34.6875 13.328125 -34.09375 L 35.8125 -6.84375 L 35.8125 -30.46875 C 35.8125 -32.53125 35.453125 -34.046875 34.734375 -35.015625 C 34.023438 -35.984375 32.859375 -36.46875 31.234375 -36.46875 C 31.160156 -36.46875 31.125 -36.585938 31.125 -36.828125 C 31.125 -37.066406 31.160156 -37.1875 31.234375 -37.1875 L 33.5625 -37.125 C 34.832031 -37.050781 35.84375 -37.015625 36.59375 -37.015625 C 37.34375 -37.015625 38.351562 -37.050781 39.625 -37.125 Z M 42.0625 -37.1875 "/></g></g></g><g fill="#231f20" fill-opacity="1"><g transform="translate(196.117796, 52.139142)"><g/></g></g><g fill="#231f20" fill-opacity="1"><g transform="translate(224.859123, 52.139142)"><g><path d="M 4.046875 -40.34375 C 3.890625 -40.34375 3.789062 -40.429688 3.75 -40.609375 C 3.707031 -40.785156 3.75 -40.914062 3.875 -41 C 5.65625 -41.90625 7.773438 -43.191406 10.234375 -44.859375 C 11.503906 -45.734375 12.476562 -46.367188 13.15625 -46.765625 C 13.351562 -46.890625 13.875 -46.8125 14.71875 -46.53125 C 15.570312 -46.25 16.304688 -45.9375 16.921875 -45.59375 C 17.535156 -45.257812 17.6875 -45.054688 17.375 -44.984375 C 14.914062 -44.390625 12.664062 -43.722656 10.625 -42.984375 C 8.582031 -42.253906 6.429688 -41.394531 4.171875 -40.40625 Z M 12.140625 -4.8125 C 12.140625 -3.582031 12.257812 -2.691406 12.5 -2.140625 C 12.738281 -1.585938 13.191406 -1.210938 13.859375 -1.015625 C 14.535156 -0.816406 15.609375 -0.71875 17.078125 -0.71875 C 17.160156 -0.71875 17.203125 -0.597656 17.203125 -0.359375 C 17.203125 -0.117188 17.160156 0 17.078125 0 C 15.847656 0 14.875 -0.0195312 14.15625 -0.0625 L 9.875 -0.125 L 5.765625 -0.0625 C 5.015625 -0.0195312 4.003906 0 2.734375 0 C 2.617188 0 2.5625 -0.117188 2.5625 -0.359375 C 2.5625 -0.597656 2.617188 -0.71875 2.734375 -0.71875 C 4.203125 -0.71875 5.273438 -0.816406 5.953125 -1.015625 C 6.628906 -1.210938 7.09375 -1.597656 7.34375 -2.171875 C 7.601562 -2.742188 7.734375 -3.625 7.734375 -4.8125 L 7.734375 -32.375 C 7.734375 -33.5625 7.601562 -34.429688 7.34375 -34.984375 C 7.09375 -35.535156 6.628906 -35.921875 5.953125 -36.140625 C 5.273438 -36.359375 4.203125 -36.46875 2.734375 -36.46875 C 2.617188 -36.46875 2.5625 -36.585938 2.5625 -36.828125 C 2.5625 -37.066406 2.617188 -37.1875 2.734375 -37.1875 L 5.765625 -37.125 C 7.429688 -37.050781 8.800781 -37.015625 9.875 -37.015625 C 11.03125 -37.015625 12.476562 -37.050781 14.21875 -37.125 L 17.078125 -37.1875 C 17.160156 -37.1875 17.203125 -37.066406 17.203125 -36.828125 C 17.203125 -36.585938 17.160156 -36.46875 17.078125 -36.46875 C 15.648438 -36.46875 14.585938 -36.347656 13.890625 -36.109375 C 13.203125 -35.878906 12.738281 -35.472656 12.5 -34.890625 C 12.257812 -34.316406 12.140625 -33.4375 12.140625 -32.25 Z M 12.140625 -4.8125 "/></g></g></g><g fill="#231f20" fill-opacity="1"><g transform="translate(259.550155, 52.139142)"><g><path d="M 24.640625 -37.84375 C 27.015625 -37.84375 29.0625 -37.671875 30.78125 -37.328125 C 32.507812 -36.992188 34.207031 -36.429688 35.875 -35.640625 C 36.15625 -35.484375 36.320312 -35.332031 36.375 -35.1875 C 36.4375 -35.050781 36.488281 -34.742188 36.53125 -34.265625 L 37.3125 -27.015625 C 37.3125 -26.890625 37.203125 -26.804688 36.984375 -26.765625 C 36.765625 -26.734375 36.632812 -26.796875 36.59375 -26.953125 C 34.644531 -33.578125 30.539062 -36.890625 24.28125 -36.890625 C 21.0625 -36.890625 18.222656 -36.15625 15.765625 -34.6875 C 13.304688 -33.21875 11.390625 -31.125 10.015625 -28.40625 C 8.648438 -25.6875 7.96875 -22.523438 7.96875 -18.921875 C 7.96875 -15.429688 8.710938 -12.253906 10.203125 -9.390625 C 11.691406 -6.535156 13.703125 -4.296875 16.234375 -2.671875 C 18.773438 -1.046875 21.554688 -0.234375 24.578125 -0.234375 C 27.710938 -0.234375 30.28125 -1.015625 32.28125 -2.578125 C 34.28125 -4.148438 35.875 -6.582031 37.0625 -9.875 C 37.101562 -10 37.222656 -10.039062 37.421875 -10 C 37.617188 -9.957031 37.71875 -9.894531 37.71875 -9.8125 L 37.125 -3.15625 C 37.050781 -2.675781 36.984375 -2.363281 36.921875 -2.21875 C 36.859375 -2.082031 36.6875 -1.9375 36.40625 -1.78125 C 34.382812 -0.832031 32.460938 -0.171875 30.640625 0.203125 C 28.816406 0.585938 26.773438 0.78125 24.515625 0.78125 C 20.347656 0.78125 16.628906 -0.0390625 13.359375 -1.6875 C 10.085938 -3.34375 7.53125 -5.644531 5.6875 -8.59375 C 3.84375 -11.550781 2.921875 -14.9375 2.921875 -18.75 C 2.921875 -22.46875 3.851562 -25.773438 5.71875 -28.671875 C 7.582031 -31.566406 10.164062 -33.816406 13.46875 -35.421875 C 16.78125 -37.035156 20.503906 -37.84375 24.640625 -37.84375 Z M 24.640625 -37.84375 "/></g></g></g><g fill="#231f20" fill-opacity="1"><g transform="translate(315.124797, 52.139142)"><g><path d="M 43.078125 -0.71875 C 43.191406 -0.71875 43.25 -0.597656 43.25 -0.359375 C 43.25 -0.117188 43.191406 0 43.078125 0 C 41.804688 0 40.816406 -0.0195312 40.109375 -0.0625 L 35.875 -0.125 L 31.296875 -0.0625 C 30.617188 -0.0195312 29.6875 0 28.5 0 C 28.382812 0 28.328125 -0.117188 28.328125 -0.359375 C 28.328125 -0.597656 28.382812 -0.71875 28.5 -0.71875 C 30.050781 -0.71875 31.171875 -0.816406 31.859375 -1.015625 C 32.554688 -1.210938 33.03125 -1.597656 33.28125 -2.171875 C 33.539062 -2.742188 33.671875 -3.625 33.671875 -4.8125 L 33.671875 -18.6875 L 11.484375 -18.6875 L 11.484375 -4.8125 C 11.484375 -3.625 11.609375 -2.742188 11.859375 -2.171875 C 12.117188 -1.597656 12.597656 -1.210938 13.296875 -1.015625 C 13.992188 -0.816406 15.113281 -0.71875 16.65625 -0.71875 C 16.738281 -0.71875 16.78125 -0.597656 16.78125 -0.359375 C 16.78125 -0.117188 16.738281 0 16.65625 0 C 15.382812 0 14.394531 -0.0195312 13.6875 -0.0625 L 9.21875 -0.125 L 5.0625 -0.0625 C 4.34375 -0.0195312 3.328125 0 2.015625 0 C 1.941406 0 1.90625 -0.117188 1.90625 -0.359375 C 1.90625 -0.597656 1.941406 -0.71875 2.015625 -0.71875 C 3.523438 -0.71875 4.625 -0.816406 5.3125 -1.015625 C 6.007812 -1.210938 6.488281 -1.597656 6.75 -2.171875 C 7.007812 -2.742188 7.140625 -3.625 7.140625 -4.8125 L 7.140625 -32.375 C 7.140625 -33.5625 7.007812 -34.429688 6.75 -34.984375 C 6.488281 -35.535156 6.007812 -35.921875 5.3125 -36.140625 C 4.625 -36.359375 3.546875 -36.46875 2.078125 -36.46875 C 2.003906 -36.46875 1.96875 -36.585938 1.96875 -36.828125 C 1.96875 -37.066406 2.003906 -37.1875 2.078125 -37.1875 L 5.109375 -37.125 C 6.773438 -37.050781 8.144531 -37.015625 9.21875 -37.015625 C 10.40625 -37.015625 11.914062 -37.050781 13.75 -37.125 L 16.65625 -37.1875 C 16.738281 -37.1875 16.78125 -37.066406 16.78125 -36.828125 C 16.78125 -36.585938 16.738281 -36.46875 16.65625 -36.46875 C 15.15625 -36.46875 14.046875 -36.347656 13.328125 -36.109375 C 12.609375 -35.878906 12.117188 -35.472656 11.859375 -34.890625 C 11.609375 -34.316406 11.484375 -33.4375 11.484375 -32.25 L 11.484375 -19.984375 L 33.671875 -19.984375 L 33.671875 -32.25 C 33.671875 -33.4375 33.539062 -34.316406 33.28125 -34.890625 C 33.03125 -35.472656 32.546875 -35.878906 31.828125 -36.109375 C 31.117188 -36.347656 30.007812 -36.46875 28.5 -36.46875 C 28.382812 -36.46875 28.328125 -36.585938 28.328125 -36.828125 C 28.328125 -37.066406 28.382812 -37.1875 28.5 -37.1875 L 31.296875 -37.125 C 33.046875 -37.050781 34.570312 -37.015625 35.875 -37.015625 C 36.945312 -37.015625 38.359375 -37.050781 40.109375 -37.125 L 43.078125 -37.1875 C 43.191406 -37.1875 43.25 -37.066406 43.25 -36.828125 C 43.25 -36.585938 43.191406 -36.46875 43.078125 -36.46875 C 41.566406 -36.46875 40.460938 -36.359375 39.765625 -36.140625 C 39.078125 -35.921875 38.601562 -35.535156 38.34375 -34.984375 C 38.09375 -34.429688 37.96875 -33.5625 37.96875 -32.375 L 37.96875 -4.8125 C 37.96875 -3.625 38.09375 -2.742188 38.34375 -2.171875 C 38.601562 -1.597656 39.078125 -1.210938 39.765625 -1.015625 C 40.460938 -0.816406 41.566406 -0.71875 43.078125 -0.71875 Z M 43.078125 -0.71875 "/></g></g></g><g fill="#231f20" fill-opacity="1"><g transform="translate(375.161763, 52.139142)"><g/></g></g><g fill="#231f20" fill-opacity="1"><g transform="translate(403.90309, 52.139142)"><g><path d="M 11.546875 -36.0625 C 9.085938 -36.0625 7.191406 -35.394531 5.859375 -34.0625 C 4.535156 -32.738281 3.570312 -30.566406 2.96875 -27.546875 C 2.9375 -27.429688 2.8125 -27.378906 2.59375 -27.390625 C 2.375 -27.410156 2.265625 -27.460938 2.265625 -27.546875 C 2.421875 -28.660156 2.597656 -30.445312 2.796875 -32.90625 C 2.992188 -35.363281 3.09375 -37.226562 3.09375 -38.5 C 3.09375 -38.695312 3.210938 -38.796875 3.453125 -38.796875 C 3.691406 -38.796875 3.8125 -38.695312 3.8125 -38.5 C 3.8125 -37.625 4.878906 -37.1875 7.015625 -37.1875 C 10.429688 -37.070312 14.421875 -37.015625 18.984375 -37.015625 C 21.316406 -37.015625 23.796875 -37.050781 26.421875 -37.125 L 30.46875 -37.1875 C 31.894531 -37.1875 32.953125 -37.285156 33.640625 -37.484375 C 34.335938 -37.679688 34.785156 -38.078125 34.984375 -38.671875 C 35.023438 -38.828125 35.144531 -38.90625 35.34375 -38.90625 C 35.539062 -38.90625 35.640625 -38.828125 35.640625 -38.671875 C 35.523438 -37.523438 35.40625 -35.75 35.28125 -33.34375 C 35.164062 -30.945312 35.109375 -29.015625 35.109375 -27.546875 C 35.109375 -27.460938 35 -27.421875 34.78125 -27.421875 C 34.5625 -27.421875 34.429688 -27.460938 34.390625 -27.546875 C 34.234375 -30.597656 33.53125 -32.78125 32.28125 -34.09375 C 31.03125 -35.40625 29.097656 -36.0625 26.484375 -36.0625 C 24.890625 -36.0625 23.742188 -35.976562 23.046875 -35.8125 C 22.359375 -35.65625 21.882812 -35.316406 21.625 -34.796875 C 21.363281 -34.285156 21.234375 -33.4375 21.234375 -32.25 L 21.234375 -4.8125 C 21.234375 -3.582031 21.363281 -2.691406 21.625 -2.140625 C 21.882812 -1.585938 22.398438 -1.210938 23.171875 -1.015625 C 23.941406 -0.816406 25.179688 -0.71875 26.890625 -0.71875 C 26.972656 -0.71875 27.015625 -0.597656 27.015625 -0.359375 C 27.015625 -0.117188 26.972656 0 26.890625 0 C 25.546875 0 24.476562 -0.0195312 23.6875 -0.0625 L 18.984375 -0.125 L 14.453125 -0.0625 C 13.660156 -0.0195312 12.550781 0 11.125 0 C 11.039062 0 11 -0.117188 11 -0.359375 C 11 -0.597656 11.039062 -0.71875 11.125 -0.71875 C 12.789062 -0.71875 14.019531 -0.816406 14.8125 -1.015625 C 15.601562 -1.210938 16.140625 -1.597656 16.421875 -2.171875 C 16.703125 -2.742188 16.84375 -3.625 16.84375 -4.8125 L 16.84375 -32.375 C 16.84375 -33.519531 16.710938 -34.335938 16.453125 -34.828125 C 16.191406 -35.328125 15.710938 -35.65625 15.015625 -35.8125 C 14.328125 -35.976562 13.171875 -36.0625 11.546875 -36.0625 Z M 11.546875 -36.0625 "/></g></g></g><g fill="#231f20" fill-opacity="1"><g transform="translate(456.562337, 52.139142)"><g><path d="M 28.140625 -40.40625 C 23.703125 -42.382812 19.300781 -43.910156 14.9375 -44.984375 C 14.613281 -45.054688 14.769531 -45.257812 15.40625 -45.59375 C 16.039062 -45.9375 16.785156 -46.25 17.640625 -46.53125 C 18.492188 -46.8125 19 -46.890625 19.15625 -46.765625 L 20.703125 -45.75 C 24.148438 -43.488281 26.707031 -41.90625 28.375 -41 C 28.5 -40.957031 28.5625 -40.875 28.5625 -40.75 C 28.5625 -40.632812 28.519531 -40.535156 28.4375 -40.453125 C 28.363281 -40.378906 28.265625 -40.363281 28.140625 -40.40625 Z M 35.578125 -13.15625 C 35.578125 -8.789062 34.269531 -5.375 31.65625 -2.90625 C 29.039062 -0.445312 25.53125 0.78125 21.125 0.78125 C 16.71875 0.78125 13.203125 -0.4375 10.578125 -2.875 C 7.960938 -5.320312 6.65625 -8.648438 6.65625 -12.859375 L 6.65625 -32.375 C 6.65625 -33.5625 6.535156 -34.429688 6.296875 -34.984375 C 6.066406 -35.535156 5.613281 -35.921875 4.9375 -36.140625 C 4.257812 -36.359375 3.1875 -36.46875 1.71875 -36.46875 C 1.644531 -36.46875 1.609375 -36.585938 1.609375 -36.828125 C 1.609375 -37.066406 1.644531 -37.1875 1.71875 -37.1875 L 4.703125 -37.125 C 6.441406 -37.050781 7.8125 -37.015625 8.8125 -37.015625 C 9.914062 -37.015625 11.34375 -37.050781 13.09375 -37.125 L 15.890625 -37.1875 C 16.003906 -37.1875 16.0625 -37.066406 16.0625 -36.828125 C 16.0625 -36.585938 16.003906 -36.46875 15.890625 -36.46875 C 14.460938 -36.46875 13.410156 -36.347656 12.734375 -36.109375 C 12.054688 -35.878906 11.597656 -35.472656 11.359375 -34.890625 C 11.117188 -34.316406 11 -33.4375 11 -32.25 L 11 -14.9375 C 11 -10.375 12.039062 -6.921875 14.125 -4.578125 C 16.207031 -2.242188 19.035156 -1.078125 22.609375 -1.078125 C 26.179688 -1.078125 28.976562 -2.132812 31 -4.25 C 33.019531 -6.375 34.03125 -9.320312 34.03125 -13.09375 L 34.03125 -30.46875 C 34.03125 -32.445312 33.582031 -33.941406 32.6875 -34.953125 C 31.800781 -35.960938 30.503906 -36.46875 28.796875 -36.46875 C 28.679688 -36.46875 28.625 -36.585938 28.625 -36.828125 C 28.625 -37.066406 28.679688 -37.1875 28.796875 -37.1875 L 31.421875 -37.125 C 32.765625 -37.050781 33.894531 -37.015625 34.8125 -37.015625 C 36.707031 -37.015625 38.09375 -37.210938 38.96875 -37.609375 C 39.84375 -38.003906 40.28125 -38.675781 40.28125 -39.625 C 40.28125 -39.976562 40.21875 -40.273438 40.09375 -40.515625 C 39.976562 -40.753906 39.84375 -40.972656 39.6875 -41.171875 C 39.289062 -41.648438 39.09375 -42.144531 39.09375 -42.65625 C 39.09375 -43.375 39.359375 -43.953125 39.890625 -44.390625 C 40.429688 -44.828125 41.035156 -45.046875 41.703125 -45.046875 C 42.460938 -45.046875 43.050781 -44.765625 43.46875 -44.203125 C 43.882812 -43.648438 44.09375 -42.976562 44.09375 -42.1875 C 44.09375 -39.84375 42.304688 -37.957031 38.734375 -36.53125 C 37.816406 -36.175781 37.0625 -35.570312 36.46875 -34.71875 C 35.875 -33.863281 35.578125 -32.445312 35.578125 -30.46875 Z M 35.578125 -13.15625 "/></g></g></g><g fill="#231f20" fill-opacity="1"><g transform="translate(512.969932, 52.139142)"><g/></g></g><g fill="#231f20" fill-opacity="1"><g transform="translate(541.711259, 52.139142)"><g><path d="M 17.4375 -37.3125 C 21.5625 -37.3125 25.207031 -36.515625 28.375 -34.921875 C 31.550781 -33.335938 34.007812 -31.175781 35.75 -28.4375 C 37.5 -25.695312 38.375 -22.625 38.375 -19.21875 C 38.375 -15.375 37.472656 -11.972656 35.671875 -9.015625 C 33.867188 -6.054688 31.425781 -3.773438 28.34375 -2.171875 C 25.269531 -0.566406 21.910156 0.234375 18.265625 0.234375 C 17.078125 0.234375 15.707031 0.175781 14.15625 0.0625 C 13.5625 0.0195312 12.835938 -0.0195312 11.984375 -0.0625 C 11.128906 -0.101562 10.1875 -0.125 9.15625 -0.125 L 5.0625 -0.0625 C 4.300781 -0.0195312 3.285156 0 2.015625 0 C 1.941406 0 1.90625 -0.117188 1.90625 -0.359375 C 1.90625 -0.597656 1.941406 -0.71875 2.015625 -0.71875 C 3.484375 -0.71875 4.554688 -0.816406 5.234375 -1.015625 C 5.910156 -1.210938 6.375 -1.597656 6.625 -2.171875 C 6.882812 -2.742188 7.015625 -3.625 7.015625 -4.8125 L 7.015625 -17.84375 L 3.15625 -17.84375 C 3 -17.84375 2.921875 -18.0625 2.921875 -18.5 C 2.921875 -18.9375 3 -19.15625 3.15625 -19.15625 L 7.015625 -19.15625 L 7.015625 -32.375 C 7.015625 -33.5625 6.894531 -34.429688 6.65625 -34.984375 C 6.425781 -35.535156 5.972656 -35.921875 5.296875 -36.140625 C 4.617188 -36.359375 3.546875 -36.46875 2.078125 -36.46875 C 2.003906 -36.46875 1.96875 -36.585938 1.96875 -36.828125 C 1.96875 -37.066406 2.003906 -37.1875 2.078125 -37.1875 L 5.0625 -37.125 C 6.800781 -37.050781 8.164062 -37.015625 9.15625 -37.015625 C 10.664062 -37.015625 12.15625 -37.070312 13.625 -37.1875 C 15.53125 -37.269531 16.800781 -37.3125 17.4375 -37.3125 Z M 17.671875 -0.71875 C 20.722656 -0.71875 23.425781 -1.378906 25.78125 -2.703125 C 28.144531 -4.035156 29.988281 -6 31.3125 -8.59375 C 32.644531 -11.195312 33.3125 -14.300781 33.3125 -17.90625 C 33.3125 -21.363281 32.675781 -24.488281 31.40625 -27.28125 C 30.144531 -30.070312 28.351562 -32.28125 26.03125 -33.90625 C 23.707031 -35.539062 21.019531 -36.359375 17.96875 -36.359375 C 16.257812 -36.359375 14.945312 -36.257812 14.03125 -36.0625 C 13.125 -35.863281 12.453125 -35.472656 12.015625 -34.890625 C 11.578125 -34.316406 11.359375 -33.4375 11.359375 -32.25 L 11.359375 -19.15625 L 19.453125 -19.15625 C 19.609375 -19.15625 19.6875 -18.9375 19.6875 -18.5 C 19.6875 -18.0625 19.609375 -17.84375 19.453125 -17.84375 L 11.359375 -17.84375 L 11.359375 -5.46875 C 11.359375 -3.726562 11.785156 -2.5 12.640625 -1.78125 C 13.492188 -1.070312 15.171875 -0.71875 17.671875 -0.71875 Z M 17.671875 -0.71875 "/></g></g></g><g fill="#231f20" fill-opacity="1"><g transform="translate(597.821353, 52.139142)"><g><path d="M 12.140625 -4.8125 C 12.140625 -3.582031 12.257812 -2.691406 12.5 -2.140625 C 12.738281 -1.585938 13.191406 -1.210938 13.859375 -1.015625 C 14.535156 -0.816406 15.609375 -0.71875 17.078125 -0.71875 C 17.160156 -0.71875 17.203125 -0.597656 17.203125 -0.359375 C 17.203125 -0.117188 17.160156 0 17.078125 0 C 15.847656 0 14.875 -0.0195312 14.15625 -0.0625 L 9.875 -0.125 L 5.765625 -0.0625 C 5.015625 -0.0195312 4.003906 0 2.734375 0 C 2.617188 0 2.5625 -0.117188 2.5625 -0.359375 C 2.5625 -0.597656 2.617188 -0.71875 2.734375 -0.71875 C 4.203125 -0.71875 5.273438 -0.816406 5.953125 -1.015625 C 6.628906 -1.210938 7.09375 -1.597656 7.34375 -2.171875 C 7.601562 -2.742188 7.734375 -3.625 7.734375 -4.8125 L 7.734375 -32.375 C 7.734375 -33.5625 7.601562 -34.429688 7.34375 -34.984375 C 7.09375 -35.535156 6.628906 -35.921875 5.953125 -36.140625 C 5.273438 -36.359375 4.203125 -36.46875 2.734375 -36.46875 C 2.617188 -36.46875 2.5625 -36.585938 2.5625 -36.828125 C 2.5625 -37.066406 2.617188 -37.1875 2.734375 -37.1875 L 5.765625 -37.125 C 7.429688 -37.050781 8.800781 -37.015625 9.875 -37.015625 C 11.03125 -37.015625 12.476562 -37.050781 14.21875 -37.125 L 17.078125 -37.1875 C 17.160156 -37.1875 17.203125 -37.066406 17.203125 -36.828125 C 17.203125 -36.585938 17.160156 -36.46875 17.078125 -36.46875 C 15.648438 -36.46875 14.585938 -36.347656 13.890625 -36.109375 C 13.203125 -35.878906 12.738281 -35.472656 12.5 -34.890625 C 12.257812 -34.316406 12.140625 -33.4375 12.140625 -32.25 Z M 12.140625 -4.8125 "/></g></g></g><g fill="#231f20" fill-opacity="1"><g transform="translate(632.512385, 52.139142)"><g><path d="M 19.15625 -46.59375 C 18.84375 -46.664062 19.007812 -46.890625 19.65625 -47.265625 C 20.3125 -47.648438 21.066406 -47.96875 21.921875 -48.21875 C 22.773438 -48.476562 23.265625 -48.53125 23.390625 -48.375 C 24.847656 -46.113281 26.273438 -44.171875 27.671875 -42.546875 C 27.710938 -42.503906 27.734375 -42.441406 27.734375 -42.359375 C 27.734375 -42.242188 27.679688 -42.144531 27.578125 -42.0625 C 27.472656 -41.988281 27.34375 -41.96875 27.1875 -42 C 25.757812 -43 24.441406 -43.863281 23.234375 -44.59375 C 22.023438 -45.332031 20.664062 -46 19.15625 -46.59375 Z M 10.953125 -38.5625 C 10.867188 -38.519531 10.765625 -38.566406 10.640625 -38.703125 C 10.523438 -38.835938 10.507812 -38.925781 10.59375 -38.96875 L 16.71875 -44.921875 C 16.914062 -45.117188 17.15625 -45.21875 17.4375 -45.21875 C 17.675781 -45.21875 17.894531 -45.117188 18.09375 -44.921875 L 24.15625 -38.96875 C 24.195312 -38.96875 24.21875 -38.929688 24.21875 -38.859375 C 24.21875 -38.773438 24.164062 -38.691406 24.0625 -38.609375 C 23.96875 -38.535156 23.898438 -38.519531 23.859375 -38.5625 L 17.4375 -41.765625 Z M 28.5 -8.921875 C 28.5 -9.046875 28.617188 -9.097656 28.859375 -9.078125 C 29.097656 -9.054688 29.21875 -8.984375 29.21875 -8.859375 C 28.851562 -6.285156 28.671875 -3.628906 28.671875 -0.890625 C 28.671875 -0.578125 28.601562 -0.347656 28.46875 -0.203125 C 28.332031 -0.0664062 28.085938 0 27.734375 0 L 2.5625 0 C 2.476562 0 2.4375 -0.117188 2.4375 -0.359375 C 2.4375 -0.597656 2.476562 -0.71875 2.5625 -0.71875 C 4.03125 -0.71875 5.097656 -0.816406 5.765625 -1.015625 C 6.441406 -1.210938 6.898438 -1.597656 7.140625 -2.171875 C 7.378906 -2.742188 7.5 -3.625 7.5 -4.8125 L 7.5 -32.375 C 7.5 -33.5625 7.378906 -34.429688 7.140625 -34.984375 C 6.898438 -35.535156 6.441406 -35.921875 5.765625 -36.140625 C 5.097656 -36.359375 4.03125 -36.46875 2.5625 -36.46875 C 2.476562 -36.46875 2.4375 -36.585938 2.4375 -36.828125 C 2.4375 -37.066406 2.476562 -37.1875 2.5625 -37.1875 L 26.71875 -37.1875 C 27.070312 -37.1875 27.25 -37.007812 27.25 -36.65625 L 27.375 -29.21875 C 27.375 -29.09375 27.265625 -29.03125 27.046875 -29.03125 C 26.828125 -29.03125 26.71875 -29.09375 26.71875 -29.21875 C 26.476562 -31.351562 25.742188 -32.992188 24.515625 -34.140625 C 23.285156 -35.296875 21.675781 -35.875 19.6875 -35.875 L 16.421875 -35.875 C 14.554688 -35.875 13.328125 -35.613281 12.734375 -35.09375 C 12.140625 -34.582031 11.84375 -33.59375 11.84375 -32.125 L 11.84375 -19.984375 L 18.6875 -19.984375 C 20.664062 -19.984375 22.097656 -20.320312 22.984375 -21 C 23.878906 -21.675781 24.328125 -22.769531 24.328125 -24.28125 C 24.328125 -24.351562 24.445312 -24.390625 24.6875 -24.390625 C 24.925781 -24.390625 25.046875 -24.351562 25.046875 -24.28125 L 24.984375 -19.34375 C 24.984375 -18.1875 25.003906 -17.3125 25.046875 -16.71875 L 25.109375 -13.75 C 25.109375 -13.664062 24.988281 -13.625 24.75 -13.625 C 24.507812 -13.625 24.390625 -13.664062 24.390625 -13.75 C 24.390625 -15.488281 23.929688 -16.742188 23.015625 -17.515625 C 22.109375 -18.296875 20.625 -18.6875 18.5625 -18.6875 L 11.84375 -18.6875 L 11.84375 -5.0625 C 11.84375 -4.03125 11.957031 -3.253906 12.1875 -2.734375 C 12.425781 -2.222656 12.84375 -1.859375 13.4375 -1.640625 C 14.039062 -1.421875 14.957031 -1.3125 16.1875 -1.3125 L 20.40625 -1.3125 C 22.507812 -1.3125 24.253906 -1.972656 25.640625 -3.296875 C 27.035156 -4.628906 27.988281 -6.503906 28.5 -8.921875 Z M 28.5 -8.921875 "/></g></g></g><g fill="#231f20" fill-opacity="1"><g transform="translate(679.459878, 52.139142)"><g><path d="M 34.03125 -30.46875 C 34.03125 -32.445312 33.582031 -33.941406 32.6875 -34.953125 C 31.800781 -35.960938 30.503906 -36.46875 28.796875 -36.46875 C 28.679688 -36.46875 28.625 -36.585938 28.625 -36.828125 C 28.625 -37.066406 28.679688 -37.1875 28.796875 -37.1875 L 31.421875 -37.125 C 32.765625 -37.050781 33.894531 -37.015625 34.8125 -37.015625 C 35.5625 -37.015625 36.570312 -37.050781 37.84375 -37.125 L 40.34375 -37.1875 C 40.414062 -37.1875 40.453125 -37.066406 40.453125 -36.828125 C 40.453125 -36.585938 40.414062 -36.46875 40.34375 -36.46875 C 38.757812 -36.46875 37.566406 -35.960938 36.765625 -34.953125 C 35.972656 -33.941406 35.578125 -32.445312 35.578125 -30.46875 L 35.578125 -13.625 C 35.578125 -9.144531 34.285156 -5.625 31.703125 -3.0625 C 29.128906 -0.5 25.679688 0.78125 21.359375 0.78125 C 18.421875 0.78125 15.851562 0.207031 13.65625 -0.9375 C 11.457031 -2.09375 9.738281 -3.734375 8.5 -5.859375 C 7.269531 -7.984375 6.65625 -10.472656 6.65625 -13.328125 L 6.65625 -32.375 C 6.65625 -33.5625 6.535156 -34.429688 6.296875 -34.984375 C 6.066406 -35.535156 5.613281 -35.921875 4.9375 -36.140625 C 4.257812 -36.359375 3.1875 -36.46875 1.71875 -36.46875 C 1.644531 -36.46875 1.609375 -36.585938 1.609375 -36.828125 C 1.609375 -37.066406 1.644531 -37.1875 1.71875 -37.1875 L 4.703125 -37.125 C 6.441406 -37.050781 7.8125 -37.015625 8.8125 -37.015625 C 9.914062 -37.015625 11.34375 -37.050781 13.09375 -37.125 L 15.890625 -37.1875 C 16.003906 -37.1875 16.0625 -37.066406 16.0625 -36.828125 C 16.0625 -36.585938 16.003906 -36.46875 15.890625 -36.46875 C 14.460938 -36.46875 13.410156 -36.347656 12.734375 -36.109375 C 12.054688 -35.878906 11.597656 -35.472656 11.359375 -34.890625 C 11.117188 -34.316406 11 -33.4375 11 -32.25 L 11 -15.40625 C 11 -10.726562 12.03125 -7.171875 14.09375 -4.734375 C 16.164062 -2.296875 19.082031 -1.078125 22.84375 -1.078125 C 26.375 -1.078125 29.117188 -2.175781 31.078125 -4.375 C 33.046875 -6.570312 34.03125 -9.632812 34.03125 -13.5625 Z M 34.03125 -30.46875 "/></g></g></g><g fill="#231f20" fill-opacity="1"><g transform="translate(735.867473, 52.139142)"><g/></g></g><g fill="#231f20" fill-opacity="1"><g transform="translate(764.6088, 52.139142)"><g><path d="M 24.453125 0.71875 C 20.046875 0.71875 16.21875 -0.148438 12.96875 -1.890625 C 9.71875 -3.640625 7.226562 -5.992188 5.5 -8.953125 C 3.78125 -11.910156 2.921875 -15.175781 2.921875 -18.75 C 2.921875 -22.550781 3.898438 -25.898438 5.859375 -28.796875 C 7.828125 -31.691406 10.515625 -33.921875 13.921875 -35.484375 C 17.335938 -37.054688 21.164062 -37.84375 25.40625 -37.84375 C 27.507812 -37.84375 29.484375 -37.65625 31.328125 -37.28125 C 33.171875 -36.90625 34.6875 -36.359375 35.875 -35.640625 C 36.195312 -35.484375 36.382812 -35.351562 36.4375 -35.25 C 36.5 -35.15625 36.550781 -34.847656 36.59375 -34.328125 L 37.359375 -27.125 C 37.359375 -27.007812 37.25 -26.929688 37.03125 -26.890625 C 36.820312 -26.847656 36.695312 -26.890625 36.65625 -27.015625 C 35.78125 -29.910156 34.3125 -32.269531 32.25 -34.09375 C 30.1875 -35.914062 27.445312 -36.828125 24.03125 -36.828125 C 21.019531 -36.828125 18.296875 -36.132812 15.859375 -34.75 C 13.421875 -33.363281 11.492188 -31.359375 10.078125 -28.734375 C 8.671875 -26.117188 7.96875 -23.085938 7.96875 -19.640625 C 7.96875 -16.179688 8.660156 -12.972656 10.046875 -10.015625 C 11.441406 -7.066406 13.5 -4.6875 16.21875 -2.875 C 18.9375 -1.070312 22.195312 -0.171875 26 -0.171875 C 28.738281 -0.171875 30.648438 -0.695312 31.734375 -1.75 C 32.828125 -2.800781 33.375 -4.695312 33.375 -7.4375 C 33.375 -9.5 33.242188 -10.9375 32.984375 -11.75 C 32.734375 -12.5625 32.179688 -13.101562 31.328125 -13.375 C 30.472656 -13.65625 28.957031 -13.796875 26.78125 -13.796875 C 26.539062 -13.796875 26.421875 -13.957031 26.421875 -14.28125 C 26.421875 -14.394531 26.445312 -14.5 26.5 -14.59375 C 26.5625 -14.695312 26.632812 -14.75 26.71875 -14.75 C 29.882812 -14.550781 32.441406 -14.453125 34.390625 -14.453125 C 36.253906 -14.453125 38.238281 -14.515625 40.34375 -14.640625 C 40.5 -14.640625 40.585938 -14.5 40.609375 -14.21875 C 40.628906 -13.9375 40.539062 -13.796875 40.34375 -13.796875 C 39.382812 -13.835938 38.71875 -13.707031 38.34375 -13.40625 C 37.96875 -13.113281 37.71875 -12.507812 37.59375 -11.59375 C 37.476562 -10.6875 37.421875 -9.101562 37.421875 -6.84375 C 37.421875 -5.0625 37.488281 -3.789062 37.625 -3.03125 C 37.769531 -2.28125 37.84375 -1.804688 37.84375 -1.609375 C 37.84375 -1.367188 37.800781 -1.207031 37.71875 -1.125 C 37.644531 -1.050781 37.46875 -0.972656 37.1875 -0.890625 C 32.269531 0.179688 28.023438 0.71875 24.453125 0.71875 Z M 24.453125 0.71875 "/></g></g></g><g fill="#231f20" fill-opacity="1"><g transform="translate(822.08736, 52.139142)"><g><path d="M 12.140625 -4.8125 C 12.140625 -3.582031 12.257812 -2.691406 12.5 -2.140625 C 12.738281 -1.585938 13.191406 -1.210938 13.859375 -1.015625 C 14.535156 -0.816406 15.609375 -0.71875 17.078125 -0.71875 C 17.160156 -0.71875 17.203125 -0.597656 17.203125 -0.359375 C 17.203125 -0.117188 17.160156 0 17.078125 0 C 15.847656 0 14.875 -0.0195312 14.15625 -0.0625 L 9.875 -0.125 L 5.765625 -0.0625 C 5.015625 -0.0195312 4.003906 0 2.734375 0 C 2.617188 0 2.5625 -0.117188 2.5625 -0.359375 C 2.5625 -0.597656 2.617188 -0.71875 2.734375 -0.71875 C 4.203125 -0.71875 5.273438 -0.816406 5.953125 -1.015625 C 6.628906 -1.210938 7.09375 -1.597656 7.34375 -2.171875 C 7.601562 -2.742188 7.734375 -3.625 7.734375 -4.8125 L 7.734375 -32.375 C 7.734375 -33.5625 7.601562 -34.429688 7.34375 -34.984375 C 7.09375 -35.535156 6.628906 -35.921875 5.953125 -36.140625 C 5.273438 -36.359375 4.203125 -36.46875 2.734375 -36.46875 C 2.617188 -36.46875 2.5625 -36.585938 2.5625 -36.828125 C 2.5625 -37.066406 2.617188 -37.1875 2.734375 -37.1875 L 5.765625 -37.125 C 7.429688 -37.050781 8.800781 -37.015625 9.875 -37.015625 C 11.03125 -37.015625 12.476562 -37.050781 14.21875 -37.125 L 17.078125 -37.1875 C 17.160156 -37.1875 17.203125 -37.066406 17.203125 -36.828125 C 17.203125 -36.585938 17.160156 -36.46875 17.078125 -36.46875 C 15.648438 -36.46875 14.585938 -36.347656 13.890625 -36.109375 C 13.203125 -35.878906 12.738281 -35.472656 12.5 -34.890625 C 12.257812 -34.316406 12.140625 -33.4375 12.140625 -32.25 Z M 12.140625 -4.8125 "/></g></g></g><g fill="#231f20" fill-opacity="1"><g transform="translate(856.778392, 52.139142)"><g><path d="M 17.84375 -48.4375 C 17.726562 -48.4375 17.617188 -48.492188 17.515625 -48.609375 C 17.421875 -48.734375 17.429688 -48.832031 17.546875 -48.90625 C 18.773438 -49.78125 20.125 -50.21875 21.59375 -50.21875 C 22.789062 -50.21875 23.734375 -49.921875 24.421875 -49.328125 C 25.117188 -48.734375 25.46875 -48 25.46875 -47.125 C 25.46875 -46.375 25.25 -45.691406 24.8125 -45.078125 C 24.375 -44.460938 23.738281 -43.738281 22.90625 -42.90625 C 22.03125 -42.03125 21.394531 -41.285156 21 -40.671875 C 20.601562 -40.054688 20.46875 -39.410156 20.59375 -38.734375 C 20.625 -38.648438 20.53125 -38.609375 20.3125 -38.609375 C 20.09375 -38.609375 19.96875 -38.648438 19.9375 -38.734375 C 19.8125 -39.210938 19.75 -39.648438 19.75 -40.046875 C 19.75 -40.640625 19.847656 -41.203125 20.046875 -41.734375 C 20.242188 -42.273438 20.539062 -42.863281 20.9375 -43.5 C 21.300781 -44.09375 21.582031 -44.613281 21.78125 -45.0625 C 21.976562 -45.519531 22.078125 -46.007812 22.078125 -46.53125 C 22.078125 -47.28125 21.847656 -47.851562 21.390625 -48.25 C 20.929688 -48.644531 20.363281 -48.84375 19.6875 -48.84375 C 19.175781 -48.84375 18.601562 -48.707031 17.96875 -48.4375 Z M 41.765625 -0.71875 C 41.921875 -0.71875 42 -0.597656 42 -0.359375 C 42 -0.117188 41.921875 0 41.765625 0 C 41.015625 0 39.847656 -0.0390625 38.265625 -0.125 C 36.671875 -0.195312 35.5 -0.234375 34.75 -0.234375 C 33.832031 -0.234375 32.703125 -0.195312 31.359375 -0.125 C 30.085938 -0.0390625 29.09375 0 28.375 0 C 28.21875 0 28.140625 -0.117188 28.140625 -0.359375 C 28.140625 -0.597656 28.21875 -0.71875 28.375 -0.71875 C 29.8125 -0.71875 30.835938 -0.84375 31.453125 -1.09375 C 32.066406 -1.351562 32.375 -1.820312 32.375 -2.5 C 32.375 -3.09375 32.09375 -3.984375 31.53125 -5.171875 L 26.421875 -15.890625 L 12.203125 -15.890625 L 8.6875 -7.734375 C 8.164062 -6.546875 7.90625 -5.457031 7.90625 -4.46875 C 7.90625 -1.96875 9.832031 -0.71875 13.6875 -0.71875 C 13.882812 -0.71875 13.984375 -0.597656 13.984375 -0.359375 C 13.984375 -0.117188 13.882812 0 13.6875 0 C 12.96875 0 11.9375 -0.0390625 10.59375 -0.125 C 9.082031 -0.195312 7.769531 -0.234375 6.65625 -0.234375 C 5.664062 -0.234375 4.457031 -0.195312 3.03125 -0.125 C 1.84375 -0.0390625 0.832031 0 0 0 C -0.195312 0 -0.296875 -0.117188 -0.296875 -0.359375 C -0.296875 -0.597656 -0.195312 -0.71875 0 -0.71875 C 1.113281 -0.71875 2.054688 -0.925781 2.828125 -1.34375 C 3.597656 -1.757812 4.335938 -2.5 5.046875 -3.5625 C 5.765625 -4.632812 6.5625 -6.203125 7.4375 -8.265625 L 19.984375 -37.65625 C 20.066406 -37.78125 20.226562 -37.84375 20.46875 -37.84375 C 20.707031 -37.84375 20.847656 -37.78125 20.890625 -37.65625 L 35.046875 -8.15625 C 36.390625 -5.257812 37.535156 -3.296875 38.484375 -2.265625 C 39.441406 -1.234375 40.535156 -0.71875 41.765625 -0.71875 Z M 12.734375 -17.140625 L 25.828125 -17.140625 L 18.921875 -31.53125 Z M 12.734375 -17.140625 "/></g></g></g><g fill="#231f20" fill-opacity="1"><g transform="translate(913.483487, 52.139142)"><g><path d="M 42.0625 -37.1875 C 42.1875 -37.1875 42.25 -37.066406 42.25 -36.828125 C 42.25 -36.585938 42.1875 -36.46875 42.0625 -36.46875 C 40.4375 -36.46875 39.238281 -35.984375 38.46875 -35.015625 C 37.695312 -34.046875 37.3125 -32.53125 37.3125 -30.46875 L 37.3125 0.71875 C 37.3125 0.832031 37.210938 0.910156 37.015625 0.953125 C 36.816406 0.992188 36.675781 0.972656 36.59375 0.890625 L 8.859375 -32.3125 L 8.6875 -32.546875 L 8.6875 -6.65625 C 8.6875 -4.59375 9.0625 -3.085938 9.8125 -2.140625 C 10.570312 -1.191406 11.742188 -0.71875 13.328125 -0.71875 C 13.441406 -0.71875 13.5 -0.597656 13.5 -0.359375 C 13.5 -0.117188 13.441406 0 13.328125 0 C 12.378906 0 11.625 -0.0195312 11.0625 -0.0625 L 8.03125 -0.125 L 4.875 -0.0625 C 4.28125 -0.0195312 3.429688 0 2.328125 0 C 2.242188 0 2.203125 -0.117188 2.203125 -0.359375 C 2.203125 -0.597656 2.242188 -0.71875 2.328125 -0.71875 C 4.023438 -0.71875 5.257812 -1.191406 6.03125 -2.140625 C 6.8125 -3.085938 7.203125 -4.59375 7.203125 -6.65625 L 7.203125 -34.09375 C 5.578125 -35.675781 3.929688 -36.46875 2.265625 -36.46875 C 2.140625 -36.46875 2.078125 -36.585938 2.078125 -36.828125 C 2.078125 -37.066406 2.140625 -37.1875 2.265625 -37.1875 L 4.46875 -37.125 C 4.9375 -37.082031 5.609375 -37.0625 6.484375 -37.0625 L 9.28125 -37.125 C 9.601562 -37.164062 10.019531 -37.1875 10.53125 -37.1875 C 10.84375 -37.1875 11.066406 -37.113281 11.203125 -36.96875 C 11.347656 -36.832031 11.582031 -36.53125 11.90625 -36.0625 C 12.375 -35.34375 12.847656 -34.6875 13.328125 -34.09375 L 35.8125 -6.84375 L 35.8125 -30.46875 C 35.8125 -32.53125 35.453125 -34.046875 34.734375 -35.015625 C 34.023438 -35.984375 32.859375 -36.46875 31.234375 -36.46875 C 31.160156 -36.46875 31.125 -36.585938 31.125 -36.828125 C 31.125 -37.066406 31.160156 -37.1875 31.234375 -37.1875 L 33.5625 -37.125 C 34.832031 -37.050781 35.84375 -37.015625 36.59375 -37.015625 C 37.34375 -37.015625 38.351562 -37.050781 39.625 -37.125 Z M 42.0625 -37.1875 "/></g></g></g><g fill="#231f20" fill-opacity="1"><g transform="translate(971.616535, 52.139142)"><g/></g></g><g fill="#231f20" fill-opacity="1"><g transform="translate(1000.357863, 52.139142)"><g><path d="M 17.4375 -37.3125 C 21.5625 -37.3125 25.207031 -36.515625 28.375 -34.921875 C 31.550781 -33.335938 34.007812 -31.175781 35.75 -28.4375 C 37.5 -25.695312 38.375 -22.625 38.375 -19.21875 C 38.375 -15.375 37.472656 -11.972656 35.671875 -9.015625 C 33.867188 -6.054688 31.425781 -3.773438 28.34375 -2.171875 C 25.269531 -0.566406 21.910156 0.234375 18.265625 0.234375 C 17.078125 0.234375 15.707031 0.175781 14.15625 0.0625 C 13.5625 0.0195312 12.835938 -0.0195312 11.984375 -0.0625 C 11.128906 -0.101562 10.1875 -0.125 9.15625 -0.125 L 5.0625 -0.0625 C 4.300781 -0.0195312 3.285156 0 2.015625 0 C 1.941406 0 1.90625 -0.117188 1.90625 -0.359375 C 1.90625 -0.597656 1.941406 -0.71875 2.015625 -0.71875 C 3.484375 -0.71875 4.554688 -0.816406 5.234375 -1.015625 C 5.910156 -1.210938 6.375 -1.597656 6.625 -2.171875 C 6.882812 -2.742188 7.015625 -3.625 7.015625 -4.8125 L 7.015625 -17.84375 L 3.15625 -17.84375 C 3 -17.84375 2.921875 -18.0625 2.921875 -18.5 C 2.921875 -18.9375 3 -19.15625 3.15625 -19.15625 L 7.015625 -19.15625 L 7.015625 -32.375 C 7.015625 -33.5625 6.894531 -34.429688 6.65625 -34.984375 C 6.425781 -35.535156 5.972656 -35.921875 5.296875 -36.140625 C 4.617188 -36.359375 3.546875 -36.46875 2.078125 -36.46875 C 2.003906 -36.46875 1.96875 -36.585938 1.96875 -36.828125 C 1.96875 -37.066406 2.003906 -37.1875 2.078125 -37.1875 L 5.0625 -37.125 C 6.800781 -37.050781 8.164062 -37.015625 9.15625 -37.015625 C 10.664062 -37.015625 12.15625 -37.070312 13.625 -37.1875 C 15.53125 -37.269531 16.800781 -37.3125 17.4375 -37.3125 Z M 17.671875 -0.71875 C 20.722656 -0.71875 23.425781 -1.378906 25.78125 -2.703125 C 28.144531 -4.035156 29.988281 -6 31.3125 -8.59375 C 32.644531 -11.195312 33.3125 -14.300781 33.3125 -17.90625 C 33.3125 -21.363281 32.675781 -24.488281 31.40625 -27.28125 C 30.144531 -30.070312 28.351562 -32.28125 26.03125 -33.90625 C 23.707031 -35.539062 21.019531 -36.359375 17.96875 -36.359375 C 16.257812 -36.359375 14.945312 -36.257812 14.03125 -36.0625 C 13.125 -35.863281 12.453125 -35.472656 12.015625 -34.890625 C 11.578125 -34.316406 11.359375 -33.4375 11.359375 -32.25 L 11.359375 -19.15625 L 19.453125 -19.15625 C 19.609375 -19.15625 19.6875 -18.9375 19.6875 -18.5 C 19.6875 -18.0625 19.609375 -17.84375 19.453125 -17.84375 L 11.359375 -17.84375 L 11.359375 -5.46875 C 11.359375 -3.726562 11.785156 -2.5 12.640625 -1.78125 C 13.492188 -1.070312 15.171875 -0.71875 17.671875 -0.71875 Z M 17.671875 -0.71875 "/></g></g></g><g fill="#231f20" fill-opacity="1"><g transform="translate(1056.468017, 52.139142)"><g><path d="M 43.796875 -39.265625 C 43.796875 -36.566406 41.648438 -34.25 37.359375 -32.3125 C 39.066406 -30.519531 40.375 -28.460938 41.28125 -26.140625 C 42.195312 -23.828125 42.65625 -21.441406 42.65625 -18.984375 C 42.65625 -15.367188 41.703125 -12.050781 39.796875 -9.03125 C 37.898438 -6.019531 35.351562 -3.640625 32.15625 -1.890625 C 28.96875 -0.148438 25.507812 0.71875 21.78125 0.71875 C 18.09375 0.71875 14.804688 -0.144531 11.921875 -1.875 C 9.046875 -3.601562 6.828125 -5.941406 5.265625 -8.890625 C 3.703125 -11.847656 2.921875 -15.070312 2.921875 -18.5625 C 2.921875 -22.644531 3.953125 -26.144531 6.015625 -29.0625 C 8.078125 -31.976562 10.722656 -34.171875 13.953125 -35.640625 C 17.179688 -37.109375 20.484375 -37.84375 23.859375 -37.84375 C 26.441406 -37.84375 28.8125 -37.414062 30.96875 -36.5625 C 33.132812 -35.707031 35.050781 -34.507812 36.71875 -32.96875 C 38.9375 -34.03125 40.046875 -35.21875 40.046875 -36.53125 C 40.046875 -36.882812 39.960938 -37.179688 39.796875 -37.421875 C 39.640625 -37.660156 39.546875 -37.800781 39.515625 -37.84375 C 39.035156 -38.394531 38.796875 -38.988281 38.796875 -39.625 C 38.796875 -40.34375 39.0625 -40.914062 39.59375 -41.34375 C 40.132812 -41.78125 40.722656 -42 41.359375 -42 C 42.148438 -42 42.753906 -41.722656 43.171875 -41.171875 C 43.585938 -40.617188 43.796875 -39.984375 43.796875 -39.265625 Z M 23.859375 -0.59375 C 26.472656 -0.59375 28.820312 -1.242188 30.90625 -2.546875 C 32.988281 -3.859375 34.632812 -5.773438 35.84375 -8.296875 C 37.050781 -10.816406 37.65625 -13.820312 37.65625 -17.3125 C 37.65625 -21 36.988281 -24.289062 35.65625 -27.1875 C 34.332031 -30.082031 32.441406 -32.34375 29.984375 -33.96875 C 27.523438 -35.59375 24.671875 -36.40625 21.421875 -36.40625 C 17.171875 -36.40625 13.851562 -35.007812 11.46875 -32.21875 C 9.09375 -29.425781 7.90625 -25.566406 7.90625 -20.640625 C 7.90625 -16.910156 8.578125 -13.519531 9.921875 -10.46875 C 11.273438 -7.414062 13.160156 -5.003906 15.578125 -3.234375 C 18.003906 -1.472656 20.765625 -0.59375 23.859375 -0.59375 Z M 23.859375 -0.59375 "/></g></g></g><g fill="#231f20" fill-opacity="1"><g transform="translate(1116.861851, 52.139142)"><g><path d="M 42.0625 -37.1875 C 42.1875 -37.1875 42.25 -37.066406 42.25 -36.828125 C 42.25 -36.585938 42.1875 -36.46875 42.0625 -36.46875 C 40.4375 -36.46875 39.238281 -35.984375 38.46875 -35.015625 C 37.695312 -34.046875 37.3125 -32.53125 37.3125 -30.46875 L 37.3125 0.71875 C 37.3125 0.832031 37.210938 0.910156 37.015625 0.953125 C 36.816406 0.992188 36.675781 0.972656 36.59375 0.890625 L 8.859375 -32.3125 L 8.6875 -32.546875 L 8.6875 -6.65625 C 8.6875 -4.59375 9.0625 -3.085938 9.8125 -2.140625 C 10.570312 -1.191406 11.742188 -0.71875 13.328125 -0.71875 C 13.441406 -0.71875 13.5 -0.597656 13.5 -0.359375 C 13.5 -0.117188 13.441406 0 13.328125 0 C 12.378906 0 11.625 -0.0195312 11.0625 -0.0625 L 8.03125 -0.125 L 4.875 -0.0625 C 4.28125 -0.0195312 3.429688 0 2.328125 0 C 2.242188 0 2.203125 -0.117188 2.203125 -0.359375 C 2.203125 -0.597656 2.242188 -0.71875 2.328125 -0.71875 C 4.023438 -0.71875 5.257812 -1.191406 6.03125 -2.140625 C 6.8125 -3.085938 7.203125 -4.59375 7.203125 -6.65625 L 7.203125 -34.09375 C 5.578125 -35.675781 3.929688 -36.46875 2.265625 -36.46875 C 2.140625 -36.46875 2.078125 -36.585938 2.078125 -36.828125 C 2.078125 -37.066406 2.140625 -37.1875 2.265625 -37.1875 L 4.46875 -37.125 C 4.9375 -37.082031 5.609375 -37.0625 6.484375 -37.0625 L 9.28125 -37.125 C 9.601562 -37.164062 10.019531 -37.1875 10.53125 -37.1875 C 10.84375 -37.1875 11.066406 -37.113281 11.203125 -36.96875 C 11.347656 -36.832031 11.582031 -36.53125 11.90625 -36.0625 C 12.375 -35.34375 12.847656 -34.6875 13.328125 -34.09375 L 35.8125 -6.84375 L 35.8125 -30.46875 C 35.8125 -32.53125 35.453125 -34.046875 34.734375 -35.015625 C 34.023438 -35.984375 32.859375 -36.46875 31.234375 -36.46875 C 31.160156 -36.46875 31.125 -36.585938 31.125 -36.828125 C 31.125 -37.066406 31.160156 -37.1875 31.234375 -37.1875 L 33.5625 -37.125 C 34.832031 -37.050781 35.84375 -37.015625 36.59375 -37.015625 C 37.34375 -37.015625 38.351562 -37.050781 39.625 -37.125 Z M 42.0625 -37.1875 "/></g></g></g></g></g></g></g></g></svg>